<mxfile host="65bd71144e">
    <diagram id="yCOenhzyAJvfUA2sP0Hg" name="v1">
        <mxGraphModel dx="889" dy="522" grid="1" gridSize="10" guides="1" tooltips="1" connect="1" arrows="1" fold="1" page="1" pageScale="1" pageWidth="850" pageHeight="1100" math="0" shadow="0">
            <root>
                <mxCell id="0"/>
                <mxCell id="1" parent="0"/>
                <mxCell id="3" value="&lt;span style=&quot;color: rgba(0, 0, 0, 0); font-family: monospace; font-size: 0px; text-align: start;&quot;&gt;%3CmxGraphModel%3E%3Croot%3E%3CmxCell%20id%3D%220%22%2F%3E%3CmxCell%20id%3D%221%22%20parent%3D%220%22%2F%3E%3CmxCell%20id%3D%222%22%20value%3D%22%22%20style%3D%22rounded%3D1%3BwhiteSpace%3Dwrap%3Bhtml%3D1%3BstrokeWidth%3D3%3BfontColor%3D%232c2b2b%3B%22%20vertex%3D%221%22%20parent%3D%221%22%3E%3CmxGeometry%20x%3D%22390%22%20y%3D%22370%22%20width%3D%22120%22%20height%3D%2260%22%20as%3D%22geometry%22%2F%3E%3C%2FmxCell%3E%3C%2Froot%3E%3C%2FmxGraphModel%3E&lt;/span&gt;" style="whiteSpace=wrap;html=1;fillColor=#d0cee2;strokeColor=#56517e;" parent="1" vertex="1">
                    <mxGeometry x="260" y="120" width="430" height="680" as="geometry"/>
                </mxCell>
                <mxCell id="32" value="VA Disability Calculator" style="html=1;shadow=0;fillColor=#647687;strokeColor=#314354;fontSize=16;fontColor=#ffffff;align=left;spacing=15;strokeWidth=3;" parent="1" vertex="1">
                    <mxGeometry x="260" y="120" width="430" height="50" as="geometry"/>
                </mxCell>
                <mxCell id="42" value="" style="rounded=1;whiteSpace=wrap;html=1;strokeWidth=3;fontColor=#2c2b2b;" parent="1" vertex="1">
                    <mxGeometry x="530" y="130" width="60" height="30" as="geometry"/>
                </mxCell>
                <mxCell id="36" value="" style="html=1;verticalLabelPosition=bottom;align=center;labelBackgroundColor=#ffffff;verticalAlign=top;strokeWidth=2;strokeColor=#d79b00;shadow=0;dashed=0;shape=mxgraph.ios7.icons.sun;pointerEvents=1;fillColor=#ffe6cc;" parent="1" vertex="1">
                    <mxGeometry x="532.5" y="135" width="20" height="20" as="geometry"/>
                </mxCell>
                <mxCell id="37" value="" style="verticalLabelPosition=bottom;verticalAlign=top;html=1;shape=mxgraph.basic.moon;strokeWidth=3;fillColor=#dae8fc;strokeColor=#6c8ebf;" parent="1" vertex="1">
                    <mxGeometry x="565" y="135" width="15" height="20" as="geometry"/>
                </mxCell>
                <mxCell id="43" value="Reset" style="rounded=1;whiteSpace=wrap;html=1;strokeWidth=3;fillColor=#1ba1e2;strokeColor=#006EAF;fontColor=#ffffff;" parent="1" vertex="1">
                    <mxGeometry x="602.5" y="130" width="77.5" height="30" as="geometry"/>
                </mxCell>
                <mxCell id="49" value="Married?" style="strokeWidth=1;shadow=0;dashed=0;align=center;html=1;shape=mxgraph.mockup.text.textBox;fontColor=#ffffff;align=left;fontSize=17;spacingLeft=4;spacingTop=-3;strokeColor=#314354;mainText=;fillColor=#647687;" parent="1" vertex="1">
                    <mxGeometry x="280" y="630" width="400" height="30" as="geometry"/>
                </mxCell>
                <mxCell id="54" value="Dependant Parents?" style="strokeWidth=1;shadow=0;dashed=0;align=center;html=1;shape=mxgraph.mockup.text.textBox;fontColor=#ffffff;align=left;fontSize=17;spacingLeft=4;spacingTop=-3;strokeColor=#314354;mainText=;fillColor=#647687;" parent="1" vertex="1">
                    <mxGeometry x="280" y="710" width="400" height="30" as="geometry"/>
                </mxCell>
                <mxCell id="59" value="Dependant Children Under 18?" style="strokeWidth=1;shadow=0;dashed=0;align=center;html=1;shape=mxgraph.mockup.text.textBox;fontColor=#ffffff;align=left;fontSize=17;spacingLeft=4;spacingTop=-3;strokeColor=#314354;mainText=;fillColor=#647687;" parent="1" vertex="1">
                    <mxGeometry x="280" y="670" width="400" height="30" as="geometry"/>
                </mxCell>
                <mxCell id="60" value="Dependant Children Over 18?" style="strokeWidth=1;shadow=0;dashed=0;align=center;html=1;shape=mxgraph.mockup.text.textBox;fontColor=#ffffff;align=left;fontSize=17;spacingLeft=4;spacingTop=-3;strokeColor=#314354;mainText=;fillColor=#647687;" parent="1" vertex="1">
                    <mxGeometry x="280" y="750" width="400" height="30" as="geometry"/>
                </mxCell>
                <mxCell id="61" value="0" style="html=1;shadow=0;dashed=0;shape=mxgraph.bootstrap.rrect;rSize=5;strokeColor=#B09500;strokeWidth=1;fillColor=#e3c800;whiteSpace=wrap;align=right;verticalAlign=middle;fontStyle=0;fontSize=14;spacingRight=20;fontColor=#000000;" parent="1" vertex="1">
                    <mxGeometry x="640" y="712.5" width="40" height="25" as="geometry"/>
                </mxCell>
                <mxCell id="62" value="" style="shape=triangle;direction=south;fillColor=#ffffff;strokeColor=none;perimeter=none;strokeWidth=3;fontColor=#e6df0a;" parent="61" vertex="1">
                    <mxGeometry x="1" y="0.5" width="10" height="5" relative="1" as="geometry">
                        <mxPoint x="-17" y="-2.5" as="offset"/>
                    </mxGeometry>
                </mxCell>
                <mxCell id="63" value="0" style="html=1;shadow=0;dashed=0;shape=mxgraph.bootstrap.rrect;rSize=5;strokeColor=#B09500;strokeWidth=1;fillColor=#e3c800;whiteSpace=wrap;align=right;verticalAlign=middle;fontStyle=0;fontSize=14;spacingRight=20;fontColor=#000000;" parent="1" vertex="1">
                    <mxGeometry x="640" y="752.5" width="40" height="25" as="geometry"/>
                </mxCell>
                <mxCell id="64" value="" style="shape=triangle;direction=south;fillColor=#ffffff;strokeColor=none;perimeter=none;strokeWidth=3;fontColor=#e6df0a;" parent="63" vertex="1">
                    <mxGeometry x="1" y="0.5" width="10" height="5" relative="1" as="geometry">
                        <mxPoint x="-17" y="-2.5" as="offset"/>
                    </mxGeometry>
                </mxCell>
                <mxCell id="65" value="90%" style="rounded=0;whiteSpace=wrap;html=1;strokeWidth=3;fontColor=#e6df0a;" parent="1" vertex="1">
                    <mxGeometry x="580" y="590" width="90" height="30" as="geometry"/>
                </mxCell>
                <mxCell id="66" value="80%" style="rounded=0;whiteSpace=wrap;html=1;strokeWidth=3;fontColor=#e6df0a;" parent="1" vertex="1">
                    <mxGeometry x="440" y="590" width="92.5" height="30" as="geometry"/>
                </mxCell>
                <mxCell id="67" value="70%" style="rounded=0;whiteSpace=wrap;html=1;strokeWidth=3;fontColor=#e6df0a;" parent="1" vertex="1">
                    <mxGeometry x="290" y="590" width="90" height="30" as="geometry"/>
                </mxCell>
                <mxCell id="68" value="60%" style="rounded=0;whiteSpace=wrap;html=1;strokeWidth=3;fontColor=#e6df0a;" parent="1" vertex="1">
                    <mxGeometry x="580" y="535" width="90" height="30" as="geometry"/>
                </mxCell>
                <mxCell id="69" value="50%" style="rounded=0;whiteSpace=wrap;html=1;strokeWidth=3;fontColor=#e6df0a;" parent="1" vertex="1">
                    <mxGeometry x="440" y="535" width="90" height="30" as="geometry"/>
                </mxCell>
                <mxCell id="70" value="40%" style="rounded=0;whiteSpace=wrap;html=1;strokeWidth=3;fontColor=#e6df0a;" parent="1" vertex="1">
                    <mxGeometry x="290" y="535" width="90" height="30" as="geometry"/>
                </mxCell>
                <mxCell id="71" value="30%" style="rounded=0;whiteSpace=wrap;html=1;strokeWidth=3;fontColor=#e6df0a;" parent="1" vertex="1">
                    <mxGeometry x="580" y="480" width="90" height="30" as="geometry"/>
                </mxCell>
                <mxCell id="72" value="20%" style="rounded=0;whiteSpace=wrap;html=1;strokeWidth=3;fontColor=#e6df0a;" parent="1" vertex="1">
                    <mxGeometry x="440" y="480" width="90" height="30" as="geometry"/>
                </mxCell>
                <mxCell id="73" value="10%" style="rounded=0;whiteSpace=wrap;html=1;strokeWidth=3;fontColor=#e6df0a;" parent="1" vertex="1">
                    <mxGeometry x="290" y="480" width="90" height="30" as="geometry"/>
                </mxCell>
                <mxCell id="76" value="" style="shape=rect;fillColor=#ffffff;strokeColor=#eeeeee;shadow=1;strokeWidth=3;fontColor=#e6df0a;" parent="1" vertex="1">
                    <mxGeometry x="275" y="200" width="400" height="260" as="geometry"/>
                </mxCell>
                <mxCell id="77" value="" style="shape=rect;fillColor=#bbbbbb;strokeColor=none;strokeWidth=3;fontColor=#e6df0a;" parent="76" vertex="1">
                    <mxGeometry width="380" height="180" relative="1" as="geometry">
                        <mxPoint x="10" y="18" as="offset"/>
                    </mxGeometry>
                </mxCell>
                <mxCell id="52" value="&lt;font style=&quot;font-size: 10px;&quot;&gt;Unadjusted Aggregate Rating: &lt;font color=&quot;#ffff33&quot; style=&quot;font-size: 10px;&quot;&gt;47%&lt;/font&gt;&lt;/font&gt;" style="strokeWidth=1;shadow=0;dashed=0;align=center;html=1;shape=mxgraph.mockup.text.textBox;fontColor=#ffffff;align=left;fontSize=10;spacingLeft=4;spacingTop=-3;strokeColor=#3A5431;mainText=;fillColor=#6d8764;" parent="76" vertex="1">
                    <mxGeometry x="187.5" y="48.747656916996036" width="165" height="28.670909090909095" as="geometry"/>
                </mxCell>
                <mxCell id="50" value="How far from next rating:&amp;nbsp; &lt;font color=&quot;#e6df0a&quot; style=&quot;font-size: 10px;&quot;&gt;10%&lt;/font&gt;" style="strokeWidth=1;shadow=0;dashed=0;align=center;html=1;shape=mxgraph.mockup.text.textBox;fontColor=#ffffff;align=left;fontSize=10;spacingLeft=4;spacingTop=-3;strokeColor=#3A5431;mainText=;fillColor=#6d8764;" parent="76" vertex="1">
                    <mxGeometry x="187.5" y="115.67" width="162.5" height="28.67" as="geometry"/>
                </mxCell>
                <mxCell id="81" value="" style="html=1;verticalLabelPosition=bottom;labelBackgroundColor=#ffffff;verticalAlign=top;shadow=0;dashed=0;strokeWidth=2;shape=mxgraph.ios7.misc.info;strokeColor=#0080f0;sketch=0;fontSize=13;fontColor=#e6df0a;" parent="76" vertex="1">
                    <mxGeometry x="360" y="53.05" width="20.1" height="20.07" as="geometry"/>
                </mxCell>
                <mxCell id="87" value="Monthly Compensation:&lt;br&gt;&lt;font color=&quot;#00ff00&quot;&gt;$1234.55&lt;/font&gt;" style="rounded=1;arcSize=9;fillColor=#6d8764;align=center;spacingLeft=5;strokeColor=#3A5431;html=1;strokeWidth=2;fontColor=#ffffff;fontSize=12" parent="76" vertex="1">
                    <mxGeometry x="55" y="205.83333333333331" width="290" height="45.15333333333333" as="geometry"/>
                </mxCell>
                <mxCell id="19" value="" style="verticalLabelPosition=bottom;verticalAlign=top;html=1;shape=mxgraph.basic.donut;dx=10;strokeColor=none;fillColor=#10739E;fontSize=10;align=center;fillOpacity=20;strokeWidth=3;fontColor=#000000;" parent="76" vertex="1">
                    <mxGeometry x="25" y="33.91" width="130" height="116.09" as="geometry"/>
                </mxCell>
                <mxCell id="20" value="&lt;font color=&quot;#2c2b2b&quot;&gt;50%&lt;/font&gt;" style="verticalLabelPosition=middle;verticalAlign=middle;html=1;shape=mxgraph.basic.partConcEllipse;startAngle=0;endAngle=0.5066973048516978;arcWidth=0.2;strokeColor=#82b366;fillColor=#d5e8d4;fontSize=22;align=center;fontStyle=1;strokeWidth=3;" parent="19" vertex="1">
                    <mxGeometry width="130" height="116.09" as="geometry"/>
                </mxCell>
                <mxCell id="89" value="" style="line;strokeWidth=2;direction=south;html=1;fontSize=10;strokeColor=#000000;" parent="76" vertex="1">
                    <mxGeometry x="175" y="26.346666666666664" width="10" height="162.98749999999998" as="geometry"/>
                </mxCell>
                <mxCell id="91" value="&lt;font&gt;3&amp;nbsp;&lt;/font&gt;&lt;font&gt;Combined ratings&lt;/font&gt;" style="text;html=1;align=center;verticalAlign=middle;whiteSpace=wrap;rounded=0;strokeWidth=3;fontSize=10;fontColor=#171616;" parent="76" vertex="1">
                    <mxGeometry x="41.25" y="160" width="97.5" height="39.33" as="geometry"/>
                </mxCell>
                <mxCell id="92" value="" style="html=1;verticalLabelPosition=bottom;labelBackgroundColor=#ffffff;verticalAlign=top;shadow=0;dashed=0;strokeWidth=2;shape=mxgraph.ios7.misc.info;strokeColor=#0080f0;sketch=0;fontSize=13;fontColor=#e6df0a;" parent="76" vertex="1">
                    <mxGeometry x="360" y="119.96999999999998" width="20.1" height="20.07" as="geometry"/>
                </mxCell>
                <mxCell id="83" value="--" style="html=1;shadow=0;dashed=0;shape=mxgraph.bootstrap.rrect;rSize=5;strokeColor=#B09500;strokeWidth=1;fillColor=#e3c800;whiteSpace=wrap;align=right;verticalAlign=middle;fontStyle=0;fontSize=14;spacingRight=20;fontColor=#000000;" parent="1" vertex="1">
                    <mxGeometry x="640" y="632.5" width="40" height="25" as="geometry"/>
                </mxCell>
                <mxCell id="84" value="" style="shape=triangle;direction=south;fillColor=#ffffff;strokeColor=none;perimeter=none;strokeWidth=3;fontColor=#e6df0a;" parent="83" vertex="1">
                    <mxGeometry x="1" y="0.5" width="10" height="5" relative="1" as="geometry">
                        <mxPoint x="-17" y="-2.5" as="offset"/>
                    </mxGeometry>
                </mxCell>
                <mxCell id="57" value="0" style="html=1;shadow=0;dashed=0;shape=mxgraph.bootstrap.rrect;rSize=5;strokeColor=#B09500;strokeWidth=1;fillColor=#e3c800;whiteSpace=wrap;align=right;verticalAlign=middle;fontStyle=0;fontSize=14;spacingRight=20;fontColor=#000000;" parent="1" vertex="1">
                    <mxGeometry x="640" y="672.5" width="40" height="25" as="geometry"/>
                </mxCell>
                <mxCell id="58" value="" style="shape=triangle;direction=south;fillColor=#ffffff;strokeColor=none;perimeter=none;strokeWidth=3;fontColor=#e6df0a;" parent="57" vertex="1">
                    <mxGeometry x="1" y="0.5" width="10" height="5" relative="1" as="geometry">
                        <mxPoint x="-17" y="-2.5" as="offset"/>
                    </mxGeometry>
                </mxCell>
                <mxCell id="93" value="according to va rating table..." style="rounded=0;whiteSpace=wrap;html=1;strokeColor=#36393d;strokeWidth=3;fontSize=10;fillColor=#f9f7ed;fontColor=#000000;" parent="1" vertex="1">
                    <mxGeometry x="700" y="360" width="120" height="60" as="geometry"/>
                </mxCell>
                <mxCell id="96" value="" style="whiteSpace=wrap;html=1;aspect=fixed;strokeColor=#B20000;strokeWidth=3;fontSize=10;fontColor=#ffffff;fillColor=#e51400;" parent="1" vertex="1">
                    <mxGeometry x="120" y="100" width="80" height="80" as="geometry"/>
                </mxCell>
            </root>
        </mxGraphModel>
    </diagram>
    <diagram id="uVfkzHxawIvBO_gn9m0w" name="v2">
        <mxGraphModel dx="889" dy="522" grid="1" gridSize="10" guides="1" tooltips="1" connect="1" arrows="1" fold="1" page="1" pageScale="1" pageWidth="850" pageHeight="1100" math="0" shadow="0">
            <root>
                <mxCell id="0"/>
                <mxCell id="1" parent="0"/>
                <mxCell id="XZa3JOoojGw1jMgYT4Qa-1" value="&lt;span style=&quot;color: rgba(0, 0, 0, 0); font-family: monospace; font-size: 0px; text-align: start;&quot;&gt;%3CmxGraphModel%3E%3Croot%3E%3CmxCell%20id%3D%220%22%2F%3E%3CmxCell%20id%3D%221%22%20parent%3D%220%22%2F%3E%3CmxCell%20id%3D%222%22%20value%3D%22%22%20style%3D%22rounded%3D1%3BwhiteSpace%3Dwrap%3Bhtml%3D1%3BstrokeWidth%3D3%3BfontColor%3D%232c2b2b%3B%22%20vertex%3D%221%22%20parent%3D%221%22%3E%3CmxGeometry%20x%3D%22390%22%20y%3D%22370%22%20width%3D%22120%22%20height%3D%2260%22%20as%3D%22geometry%22%2F%3E%3C%2FmxCell%3E%3C%2Froot%3E%3C%2FmxGraphModel%3E&lt;/span&gt;" style="whiteSpace=wrap;html=1;fillColor=#d0cee2;strokeColor=#56517e;" parent="1" vertex="1">
                    <mxGeometry x="260" y="120" width="430" height="820" as="geometry"/>
                </mxCell>
                <mxCell id="XZa3JOoojGw1jMgYT4Qa-2" value="VA Disability Calculator" style="html=1;shadow=0;fillColor=#647687;strokeColor=#314354;fontSize=16;fontColor=#ffffff;align=left;spacing=15;strokeWidth=3;" parent="1" vertex="1">
                    <mxGeometry x="260" y="120" width="430" height="50" as="geometry"/>
                </mxCell>
                <mxCell id="XZa3JOoojGw1jMgYT4Qa-3" value="" style="rounded=1;whiteSpace=wrap;html=1;strokeWidth=3;fontColor=#2c2b2b;" parent="1" vertex="1">
                    <mxGeometry x="530" y="130" width="60" height="30" as="geometry"/>
                </mxCell>
                <mxCell id="XZa3JOoojGw1jMgYT4Qa-4" value="" style="html=1;verticalLabelPosition=bottom;align=center;labelBackgroundColor=#ffffff;verticalAlign=top;strokeWidth=2;strokeColor=#d79b00;shadow=0;dashed=0;shape=mxgraph.ios7.icons.sun;pointerEvents=1;fillColor=#ffe6cc;" parent="1" vertex="1">
                    <mxGeometry x="532.5" y="135" width="20" height="20" as="geometry"/>
                </mxCell>
                <mxCell id="XZa3JOoojGw1jMgYT4Qa-5" value="" style="verticalLabelPosition=bottom;verticalAlign=top;html=1;shape=mxgraph.basic.moon;strokeWidth=3;fillColor=#dae8fc;strokeColor=#6c8ebf;" parent="1" vertex="1">
                    <mxGeometry x="565" y="135" width="15" height="20" as="geometry"/>
                </mxCell>
                <mxCell id="XZa3JOoojGw1jMgYT4Qa-6" value="Reset" style="rounded=1;whiteSpace=wrap;html=1;strokeWidth=3;fillColor=#1ba1e2;strokeColor=#006EAF;fontColor=#ffffff;" parent="1" vertex="1">
                    <mxGeometry x="602.5" y="130" width="77.5" height="30" as="geometry"/>
                </mxCell>
                <mxCell id="XZa3JOoojGw1jMgYT4Qa-7" value="Married?" style="strokeWidth=1;shadow=0;dashed=0;align=center;html=1;shape=mxgraph.mockup.text.textBox;fontColor=#ffffff;align=left;fontSize=17;spacingLeft=4;spacingTop=-3;strokeColor=#314354;mainText=;fillColor=#647687;" parent="1" vertex="1">
                    <mxGeometry x="275" y="770" width="400" height="30" as="geometry"/>
                </mxCell>
                <mxCell id="XZa3JOoojGw1jMgYT4Qa-8" value="Dependant Parents?" style="strokeWidth=1;shadow=0;dashed=0;align=center;html=1;shape=mxgraph.mockup.text.textBox;fontColor=#ffffff;align=left;fontSize=17;spacingLeft=4;spacingTop=-3;strokeColor=#314354;mainText=;fillColor=#647687;" parent="1" vertex="1">
                    <mxGeometry x="275" y="890" width="400" height="30" as="geometry"/>
                </mxCell>
                <mxCell id="XZa3JOoojGw1jMgYT4Qa-9" value="Dependant Children Under 18?" style="strokeWidth=1;shadow=0;dashed=0;align=center;html=1;shape=mxgraph.mockup.text.textBox;fontColor=#ffffff;align=left;fontSize=17;spacingLeft=4;spacingTop=-3;strokeColor=#314354;mainText=;fillColor=#647687;" parent="1" vertex="1">
                    <mxGeometry x="275" y="810" width="400" height="30" as="geometry"/>
                </mxCell>
                <mxCell id="XZa3JOoojGw1jMgYT4Qa-10" value="Dependant Children Over 18?" style="strokeWidth=1;shadow=0;dashed=0;align=center;html=1;shape=mxgraph.mockup.text.textBox;fontColor=#ffffff;align=left;fontSize=17;spacingLeft=4;spacingTop=-3;strokeColor=#314354;mainText=;fillColor=#647687;" parent="1" vertex="1">
                    <mxGeometry x="275" y="850" width="400" height="30" as="geometry"/>
                </mxCell>
                <mxCell id="XZa3JOoojGw1jMgYT4Qa-11" value="0" style="html=1;shadow=0;dashed=0;shape=mxgraph.bootstrap.rrect;rSize=5;strokeColor=#B09500;strokeWidth=1;fillColor=#e3c800;whiteSpace=wrap;align=right;verticalAlign=middle;fontStyle=0;fontSize=14;spacingRight=20;fontColor=#000000;" parent="1" vertex="1">
                    <mxGeometry x="635" y="852.5" width="40" height="25" as="geometry"/>
                </mxCell>
                <mxCell id="XZa3JOoojGw1jMgYT4Qa-12" value="" style="shape=triangle;direction=south;fillColor=#ffffff;strokeColor=none;perimeter=none;strokeWidth=3;fontColor=#e6df0a;" parent="XZa3JOoojGw1jMgYT4Qa-11" vertex="1">
                    <mxGeometry x="1" y="0.5" width="10" height="5" relative="1" as="geometry">
                        <mxPoint x="-17" y="-2.5" as="offset"/>
                    </mxGeometry>
                </mxCell>
                <mxCell id="XZa3JOoojGw1jMgYT4Qa-13" value="0" style="html=1;shadow=0;dashed=0;shape=mxgraph.bootstrap.rrect;rSize=5;strokeColor=#B09500;strokeWidth=1;fillColor=#e3c800;whiteSpace=wrap;align=right;verticalAlign=middle;fontStyle=0;fontSize=14;spacingRight=20;fontColor=#000000;" parent="1" vertex="1">
                    <mxGeometry x="635" y="892.5" width="40" height="25" as="geometry"/>
                </mxCell>
                <mxCell id="XZa3JOoojGw1jMgYT4Qa-14" value="" style="shape=triangle;direction=south;fillColor=#ffffff;strokeColor=none;perimeter=none;strokeWidth=3;fontColor=#e6df0a;" parent="XZa3JOoojGw1jMgYT4Qa-13" vertex="1">
                    <mxGeometry x="1" y="0.5" width="10" height="5" relative="1" as="geometry">
                        <mxPoint x="-17" y="-2.5" as="offset"/>
                    </mxGeometry>
                </mxCell>
                <mxCell id="XZa3JOoojGw1jMgYT4Qa-15" value="90%" style="rounded=0;whiteSpace=wrap;html=1;strokeWidth=3;fontColor=#e6df0a;" parent="1" vertex="1">
                    <mxGeometry x="565" y="720" width="90" height="30" as="geometry"/>
                </mxCell>
                <mxCell id="XZa3JOoojGw1jMgYT4Qa-16" value="80%" style="rounded=0;whiteSpace=wrap;html=1;strokeWidth=3;fontColor=#e6df0a;" parent="1" vertex="1">
                    <mxGeometry x="425" y="720" width="92.5" height="30" as="geometry"/>
                </mxCell>
                <mxCell id="XZa3JOoojGw1jMgYT4Qa-17" value="70%" style="rounded=0;whiteSpace=wrap;html=1;strokeWidth=3;fontColor=#e6df0a;" parent="1" vertex="1">
                    <mxGeometry x="290" y="720" width="90" height="30" as="geometry"/>
                </mxCell>
                <mxCell id="XZa3JOoojGw1jMgYT4Qa-18" value="60%" style="rounded=0;whiteSpace=wrap;html=1;strokeWidth=3;fontColor=#e6df0a;" parent="1" vertex="1">
                    <mxGeometry x="565" y="670" width="90" height="30" as="geometry"/>
                </mxCell>
                <mxCell id="XZa3JOoojGw1jMgYT4Qa-19" value="50%" style="rounded=0;whiteSpace=wrap;html=1;strokeWidth=3;fontColor=#e6df0a;" parent="1" vertex="1">
                    <mxGeometry x="425" y="670" width="90" height="30" as="geometry"/>
                </mxCell>
                <mxCell id="XZa3JOoojGw1jMgYT4Qa-20" value="40%" style="rounded=0;whiteSpace=wrap;html=1;strokeWidth=3;fontColor=#e6df0a;" parent="1" vertex="1">
                    <mxGeometry x="290" y="670" width="90" height="30" as="geometry"/>
                </mxCell>
                <mxCell id="XZa3JOoojGw1jMgYT4Qa-21" value="30%" style="rounded=0;whiteSpace=wrap;html=1;strokeWidth=3;fontColor=#e6df0a;" parent="1" vertex="1">
                    <mxGeometry x="565" y="620" width="90" height="30" as="geometry"/>
                </mxCell>
                <mxCell id="XZa3JOoojGw1jMgYT4Qa-22" value="20%" style="rounded=0;whiteSpace=wrap;html=1;strokeWidth=3;fontColor=#e6df0a;" parent="1" vertex="1">
                    <mxGeometry x="425" y="620" width="90" height="30" as="geometry"/>
                </mxCell>
                <mxCell id="XZa3JOoojGw1jMgYT4Qa-23" value="10%" style="rounded=0;whiteSpace=wrap;html=1;strokeWidth=3;fontColor=#e6df0a;" parent="1" vertex="1">
                    <mxGeometry x="290" y="620" width="90" height="30" as="geometry"/>
                </mxCell>
                <mxCell id="XZa3JOoojGw1jMgYT4Qa-24" value="" style="shape=rect;fillColor=#ffffff;strokeColor=#eeeeee;shadow=1;strokeWidth=3;fontColor=#e6df0a;" parent="1" vertex="1">
                    <mxGeometry x="275" y="190" width="400" height="410" as="geometry"/>
                </mxCell>
                <mxCell id="XZa3JOoojGw1jMgYT4Qa-25" value="" style="shape=rect;fillColor=#bbbbbb;strokeColor=none;strokeWidth=3;fontColor=#e6df0a;" parent="XZa3JOoojGw1jMgYT4Qa-24" vertex="1">
                    <mxGeometry width="380" height="180" relative="1" as="geometry">
                        <mxPoint x="10" y="10" as="offset"/>
                    </mxGeometry>
                </mxCell>
                <mxCell id="XZa3JOoojGw1jMgYT4Qa-29" value="Monthly Compensation:&lt;br&gt;&lt;font color=&quot;#00ff00&quot;&gt;$1042&lt;/font&gt;" style="rounded=1;arcSize=9;fillColor=#6d8764;align=center;spacingLeft=5;strokeColor=#3A5431;html=1;strokeWidth=2;fontColor=#ffffff;fontSize=12" parent="XZa3JOoojGw1jMgYT4Qa-24" vertex="1">
                    <mxGeometry x="55" y="210.005" width="290" height="71.20333333333333" as="geometry"/>
                </mxCell>
                <mxCell id="XZa3JOoojGw1jMgYT4Qa-33" value="&lt;font&gt;4&amp;nbsp;&lt;/font&gt;&lt;font&gt;Combined ratings&lt;/font&gt;" style="text;html=1;align=center;verticalAlign=middle;whiteSpace=wrap;rounded=0;strokeWidth=3;fontSize=10;fontColor=#171616;" parent="XZa3JOoojGw1jMgYT4Qa-24" vertex="1">
                    <mxGeometry x="41.25" y="140.00394230769234" width="97.5" height="62.02038461538462" as="geometry"/>
                </mxCell>
                <mxCell id="nonkc4hHebOO18170wVA-4" value="10%&amp;nbsp; &amp;nbsp;X" style="rounded=0;whiteSpace=wrap;html=1;strokeWidth=3;fontColor=#ffffff;fillColor=#1ba1e2;strokeColor=#006EAF;" parent="XZa3JOoojGw1jMgYT4Qa-24" vertex="1">
                    <mxGeometry x="25" y="310" width="65" height="30" as="geometry"/>
                </mxCell>
                <mxCell id="nonkc4hHebOO18170wVA-3" value="10%&amp;nbsp; &amp;nbsp;X" style="rounded=0;whiteSpace=wrap;html=1;strokeWidth=3;fontColor=#ffffff;fillColor=#1ba1e2;strokeColor=#006EAF;" parent="XZa3JOoojGw1jMgYT4Qa-24" vertex="1">
                    <mxGeometry x="116" y="310" width="65" height="30" as="geometry"/>
                </mxCell>
                <mxCell id="nonkc4hHebOO18170wVA-2" value="20%&amp;nbsp; &amp;nbsp;X" style="rounded=0;whiteSpace=wrap;html=1;strokeWidth=3;fontColor=#ffffff;fillColor=#1ba1e2;strokeColor=#006EAF;" parent="XZa3JOoojGw1jMgYT4Qa-24" vertex="1">
                    <mxGeometry x="205" y="310" width="65" height="30" as="geometry"/>
                </mxCell>
                <mxCell id="nonkc4hHebOO18170wVA-5" value="20%&amp;nbsp; &amp;nbsp;X" style="rounded=0;whiteSpace=wrap;html=1;strokeWidth=3;fontColor=#ffffff;fillColor=#1ba1e2;strokeColor=#006EAF;" parent="XZa3JOoojGw1jMgYT4Qa-24" vertex="1">
                    <mxGeometry x="295" y="310" width="72.5" height="30" as="geometry"/>
                </mxCell>
                <mxCell id="XZa3JOoojGw1jMgYT4Qa-30" value="" style="verticalLabelPosition=bottom;verticalAlign=top;html=1;shape=mxgraph.basic.donut;dx=10;strokeColor=none;fillColor=#10739E;fontSize=10;align=center;fillOpacity=20;strokeWidth=3;fontColor=#000000;" parent="XZa3JOoojGw1jMgYT4Qa-24" vertex="1">
                    <mxGeometry x="25" y="25.55" width="130" height="114.45" as="geometry"/>
                </mxCell>
                <mxCell id="XZa3JOoojGw1jMgYT4Qa-31" value="&lt;font color=&quot;#2c2b2b&quot;&gt;50%&lt;/font&gt;" style="verticalLabelPosition=middle;verticalAlign=middle;html=1;shape=mxgraph.basic.partConcEllipse;startAngle=0;endAngle=0.5066973048516978;arcWidth=0.2;strokeColor=#82b366;fillColor=#d5e8d4;fontSize=22;align=center;fontStyle=1;strokeWidth=3;" parent="XZa3JOoojGw1jMgYT4Qa-30" vertex="1">
                    <mxGeometry width="130" height="114.44999999999997" as="geometry"/>
                </mxCell>
                <mxCell id="XZa3JOoojGw1jMgYT4Qa-26" value="&lt;font style=&quot;font-size: 10px;&quot;&gt;Unadjusted Aggregate Rating: &lt;font color=&quot;#ffff33&quot; style=&quot;font-size: 10px;&quot;&gt;48%&lt;/font&gt;&lt;/font&gt;" style="strokeWidth=1;shadow=0;dashed=0;align=center;html=1;shape=mxgraph.mockup.text.textBox;fontColor=#ffffff;align=left;fontSize=10;spacingLeft=4;spacingTop=-3;strokeColor=#3A5431;mainText=;fillColor=#6d8764;" parent="XZa3JOoojGw1jMgYT4Qa-24" vertex="1">
                    <mxGeometry x="185" y="39.99765691699605" width="165" height="28.670909090909095" as="geometry"/>
                </mxCell>
                <mxCell id="XZa3JOoojGw1jMgYT4Qa-27" value="How far from next rating:&amp;nbsp; &lt;font color=&quot;#e6df0a&quot; style=&quot;font-size: 10px;&quot;&gt;10%&lt;/font&gt;" style="strokeWidth=1;shadow=0;dashed=0;align=center;html=1;shape=mxgraph.mockup.text.textBox;fontColor=#ffffff;align=left;fontSize=10;spacingLeft=4;spacingTop=-3;strokeColor=#3A5431;mainText=;fillColor=#6d8764;" parent="XZa3JOoojGw1jMgYT4Qa-24" vertex="1">
                    <mxGeometry x="185" y="110" width="162.5" height="28.67" as="geometry"/>
                </mxCell>
                <mxCell id="XZa3JOoojGw1jMgYT4Qa-34" value="" style="html=1;verticalLabelPosition=bottom;labelBackgroundColor=#ffffff;verticalAlign=top;shadow=0;dashed=0;strokeWidth=2;shape=mxgraph.ios7.misc.info;strokeColor=#0080f0;sketch=0;fontSize=13;fontColor=#e6df0a;" parent="XZa3JOoojGw1jMgYT4Qa-24" vertex="1">
                    <mxGeometry x="355" y="114.30000000000001" width="20.1" height="20.07" as="geometry"/>
                </mxCell>
                <mxCell id="XZa3JOoojGw1jMgYT4Qa-28" value="" style="html=1;verticalLabelPosition=bottom;labelBackgroundColor=#ffffff;verticalAlign=top;shadow=0;dashed=0;strokeWidth=2;shape=mxgraph.ios7.misc.info;strokeColor=#0080f0;sketch=0;fontSize=13;fontColor=#e6df0a;" parent="XZa3JOoojGw1jMgYT4Qa-24" vertex="1">
                    <mxGeometry x="355" y="44.30000000000001" width="20.1" height="20.07" as="geometry"/>
                </mxCell>
                <mxCell id="XZa3JOoojGw1jMgYT4Qa-35" value="--" style="html=1;shadow=0;dashed=0;shape=mxgraph.bootstrap.rrect;rSize=5;strokeColor=#B09500;strokeWidth=1;fillColor=#e3c800;whiteSpace=wrap;align=right;verticalAlign=middle;fontStyle=0;fontSize=14;spacingRight=20;fontColor=#000000;" parent="1" vertex="1">
                    <mxGeometry x="635" y="772.5" width="40" height="25" as="geometry"/>
                </mxCell>
                <mxCell id="XZa3JOoojGw1jMgYT4Qa-36" value="" style="shape=triangle;direction=south;fillColor=#ffffff;strokeColor=none;perimeter=none;strokeWidth=3;fontColor=#e6df0a;" parent="XZa3JOoojGw1jMgYT4Qa-35" vertex="1">
                    <mxGeometry x="1" y="0.5" width="10" height="5" relative="1" as="geometry">
                        <mxPoint x="-17" y="-2.5" as="offset"/>
                    </mxGeometry>
                </mxCell>
                <mxCell id="XZa3JOoojGw1jMgYT4Qa-37" value="0" style="html=1;shadow=0;dashed=0;shape=mxgraph.bootstrap.rrect;rSize=5;strokeColor=#B09500;strokeWidth=1;fillColor=#e3c800;whiteSpace=wrap;align=right;verticalAlign=middle;fontStyle=0;fontSize=14;spacingRight=20;fontColor=#000000;" parent="1" vertex="1">
                    <mxGeometry x="635" y="812.5" width="40" height="25" as="geometry"/>
                </mxCell>
                <mxCell id="XZa3JOoojGw1jMgYT4Qa-38" value="" style="shape=triangle;direction=south;fillColor=#ffffff;strokeColor=none;perimeter=none;strokeWidth=3;fontColor=#e6df0a;" parent="XZa3JOoojGw1jMgYT4Qa-37" vertex="1">
                    <mxGeometry x="1" y="0.5" width="10" height="5" relative="1" as="geometry">
                        <mxPoint x="-17" y="-2.5" as="offset"/>
                    </mxGeometry>
                </mxCell>
            </root>
        </mxGraphModel>
    </diagram>
    <diagram id="_pgEZ1vgzi8vsCeBVHWi" name="v3">
        <mxGraphModel dx="889" dy="522" grid="1" gridSize="10" guides="1" tooltips="1" connect="1" arrows="1" fold="1" page="1" pageScale="1" pageWidth="850" pageHeight="1100" math="0" shadow="0">
            <root>
                <mxCell id="0"/>
                <mxCell id="1" parent="0"/>
                <mxCell id="tF_pmX42v4WF78qZTHzq-1" value="&lt;span style=&quot;color: rgba(0, 0, 0, 0); font-family: monospace; font-size: 0px; text-align: start;&quot;&gt;%3CmxGraphModel%3E%3Croot%3E%3CmxCell%20id%3D%220%22%2F%3E%3CmxCell%20id%3D%221%22%20parent%3D%220%22%2F%3E%3CmxCell%20id%3D%222%22%20value%3D%22%22%20style%3D%22rounded%3D1%3BwhiteSpace%3Dwrap%3Bhtml%3D1%3BstrokeWidth%3D3%3BfontColor%3D%232c2b2b%3B%22%20vertex%3D%221%22%20parent%3D%221%22%3E%3CmxGeometry%20x%3D%22390%22%20y%3D%22370%22%20width%3D%22120%22%20height%3D%2260%22%20as%3D%22geometry%22%2F%3E%3C%2FmxCell%3E%3C%2Froot%3E%3C%2FmxGraphModel%3E&lt;/span&gt;" style="whiteSpace=wrap;html=1;fillColor=#d0cee2;strokeColor=#56517e;" vertex="1" parent="1">
                    <mxGeometry x="260" y="120" width="430" height="790" as="geometry"/>
                </mxCell>
                <mxCell id="tF_pmX42v4WF78qZTHzq-2" value="VA Disability Calculator" style="html=1;shadow=0;fillColor=#647687;strokeColor=#314354;fontSize=16;fontColor=#ffffff;align=left;spacing=15;strokeWidth=3;" vertex="1" parent="1">
                    <mxGeometry x="260" y="120" width="430" height="50" as="geometry"/>
                </mxCell>
                <mxCell id="tF_pmX42v4WF78qZTHzq-3" value="" style="rounded=1;whiteSpace=wrap;html=1;strokeWidth=3;fontColor=#2c2b2b;" vertex="1" parent="1">
                    <mxGeometry x="530" y="130" width="60" height="30" as="geometry"/>
                </mxCell>
                <mxCell id="tF_pmX42v4WF78qZTHzq-4" value="" style="html=1;verticalLabelPosition=bottom;align=center;labelBackgroundColor=#ffffff;verticalAlign=top;strokeWidth=2;strokeColor=#d79b00;shadow=0;dashed=0;shape=mxgraph.ios7.icons.sun;pointerEvents=1;fillColor=#ffe6cc;" vertex="1" parent="1">
                    <mxGeometry x="532.5" y="135" width="20" height="20" as="geometry"/>
                </mxCell>
                <mxCell id="tF_pmX42v4WF78qZTHzq-5" value="" style="verticalLabelPosition=bottom;verticalAlign=top;html=1;shape=mxgraph.basic.moon;strokeWidth=3;fillColor=#dae8fc;strokeColor=#6c8ebf;" vertex="1" parent="1">
                    <mxGeometry x="565" y="135" width="15" height="20" as="geometry"/>
                </mxCell>
                <mxCell id="tF_pmX42v4WF78qZTHzq-6" value="Reset" style="rounded=1;whiteSpace=wrap;html=1;strokeWidth=3;fillColor=#1ba1e2;strokeColor=#006EAF;fontColor=#ffffff;" vertex="1" parent="1">
                    <mxGeometry x="602.5" y="130" width="77.5" height="30" as="geometry"/>
                </mxCell>
                <mxCell id="tF_pmX42v4WF78qZTHzq-7" value="Married?" style="strokeWidth=1;shadow=0;dashed=0;align=center;html=1;shape=mxgraph.mockup.text.textBox;fontColor=#ffffff;align=left;fontSize=17;spacingLeft=4;spacingTop=-3;strokeColor=#314354;mainText=;fillColor=#647687;" vertex="1" parent="1">
                    <mxGeometry x="270" y="745" width="400" height="30" as="geometry"/>
                </mxCell>
                <mxCell id="tF_pmX42v4WF78qZTHzq-8" value="Dependant Parents?" style="strokeWidth=1;shadow=0;dashed=0;align=center;html=1;shape=mxgraph.mockup.text.textBox;fontColor=#ffffff;align=left;fontSize=17;spacingLeft=4;spacingTop=-3;strokeColor=#314354;mainText=;fillColor=#647687;" vertex="1" parent="1">
                    <mxGeometry x="270" y="870" width="400" height="30" as="geometry"/>
                </mxCell>
                <mxCell id="tF_pmX42v4WF78qZTHzq-9" value="Dependant Children Under 18?" style="strokeWidth=1;shadow=0;dashed=0;align=center;html=1;shape=mxgraph.mockup.text.textBox;fontColor=#ffffff;align=left;fontSize=17;spacingLeft=4;spacingTop=-3;strokeColor=#314354;mainText=;fillColor=#647687;" vertex="1" parent="1">
                    <mxGeometry x="270" y="790" width="400" height="30" as="geometry"/>
                </mxCell>
                <mxCell id="tF_pmX42v4WF78qZTHzq-10" value="Dependant Children Over 18?" style="strokeWidth=1;shadow=0;dashed=0;align=center;html=1;shape=mxgraph.mockup.text.textBox;fontColor=#ffffff;align=left;fontSize=17;spacingLeft=4;spacingTop=-3;strokeColor=#314354;mainText=;fillColor=#647687;" vertex="1" parent="1">
                    <mxGeometry x="270" y="830" width="400" height="30" as="geometry"/>
                </mxCell>
                <mxCell id="tF_pmX42v4WF78qZTHzq-11" value="0" style="html=1;shadow=0;dashed=0;shape=mxgraph.bootstrap.rrect;rSize=5;strokeColor=#B09500;strokeWidth=1;fillColor=#e3c800;whiteSpace=wrap;align=right;verticalAlign=middle;fontStyle=0;fontSize=14;spacingRight=20;fontColor=#000000;" vertex="1" parent="1">
                    <mxGeometry x="621.25" y="832.5" width="40" height="25" as="geometry"/>
                </mxCell>
                <mxCell id="tF_pmX42v4WF78qZTHzq-12" value="" style="shape=triangle;direction=south;fillColor=#ffffff;strokeColor=none;perimeter=none;strokeWidth=3;fontColor=#e6df0a;" vertex="1" parent="tF_pmX42v4WF78qZTHzq-11">
                    <mxGeometry x="1" y="0.5" width="10" height="5" relative="1" as="geometry">
                        <mxPoint x="-17" y="-2.5" as="offset"/>
                    </mxGeometry>
                </mxCell>
                <mxCell id="tF_pmX42v4WF78qZTHzq-13" value="0" style="html=1;shadow=0;dashed=0;shape=mxgraph.bootstrap.rrect;rSize=5;strokeColor=#B09500;strokeWidth=1;fillColor=#e3c800;whiteSpace=wrap;align=right;verticalAlign=middle;fontStyle=0;fontSize=14;spacingRight=20;fontColor=#000000;" vertex="1" parent="1">
                    <mxGeometry x="621.25" y="872.5" width="40" height="25" as="geometry"/>
                </mxCell>
                <mxCell id="tF_pmX42v4WF78qZTHzq-14" value="" style="shape=triangle;direction=south;fillColor=#ffffff;strokeColor=none;perimeter=none;strokeWidth=3;fontColor=#e6df0a;" vertex="1" parent="tF_pmX42v4WF78qZTHzq-13">
                    <mxGeometry x="1" y="0.5" width="10" height="5" relative="1" as="geometry">
                        <mxPoint x="-17" y="-2.5" as="offset"/>
                    </mxGeometry>
                </mxCell>
                <mxCell id="tF_pmX42v4WF78qZTHzq-24" value="" style="shape=rect;fillColor=#ffffff;strokeColor=#eeeeee;shadow=1;strokeWidth=3;fontColor=#e6df0a;" vertex="1" parent="1">
                    <mxGeometry x="275" y="180" width="400" height="450" as="geometry"/>
                </mxCell>
                <mxCell id="tF_pmX42v4WF78qZTHzq-25" value="" style="shape=rect;fillColor=#bbbbbb;strokeColor=none;strokeWidth=3;fontColor=#e6df0a;" vertex="1" parent="tF_pmX42v4WF78qZTHzq-24">
                    <mxGeometry width="380" height="180" relative="1" as="geometry">
                        <mxPoint x="10" y="10" as="offset"/>
                    </mxGeometry>
                </mxCell>
                <mxCell id="tF_pmX42v4WF78qZTHzq-26" value="Monthly Compensation:&lt;br&gt;&lt;font color=&quot;#00ff00&quot;&gt;$1042&lt;/font&gt;" style="rounded=1;arcSize=9;fillColor=#6d8764;align=center;spacingLeft=5;strokeColor=#3A5431;html=1;strokeWidth=2;fontColor=#ffffff;fontSize=12" vertex="1" parent="tF_pmX42v4WF78qZTHzq-24">
                    <mxGeometry x="55" y="208.07329268292682" width="290" height="78.15" as="geometry"/>
                </mxCell>
                <mxCell id="tF_pmX42v4WF78qZTHzq-27" value="&lt;font&gt;4&amp;nbsp;&lt;/font&gt;&lt;font&gt;Combined ratings&lt;/font&gt;" style="text;html=1;align=center;verticalAlign=middle;whiteSpace=wrap;rounded=0;strokeWidth=3;fontSize=10;fontColor=#171616;" vertex="1" parent="tF_pmX42v4WF78qZTHzq-24">
                    <mxGeometry x="41.25" y="140.00286350844283" width="97.5" height="68.07115384615386" as="geometry"/>
                </mxCell>
                <mxCell id="tF_pmX42v4WF78qZTHzq-28" value="10%&amp;nbsp; &amp;nbsp;X" style="rounded=0;whiteSpace=wrap;html=1;strokeWidth=3;fontColor=#ffffff;fillColor=#1ba1e2;strokeColor=#006EAF;" vertex="1" parent="tF_pmX42v4WF78qZTHzq-24">
                    <mxGeometry x="25" y="307.3139024390244" width="65" height="32.926829268292686" as="geometry"/>
                </mxCell>
                <mxCell id="tF_pmX42v4WF78qZTHzq-29" value="10%&amp;nbsp; &amp;nbsp;X" style="rounded=0;whiteSpace=wrap;html=1;strokeWidth=3;fontColor=#ffffff;fillColor=#1ba1e2;strokeColor=#006EAF;" vertex="1" parent="tF_pmX42v4WF78qZTHzq-24">
                    <mxGeometry x="105" y="307.3139024390244" width="65" height="32.926829268292686" as="geometry"/>
                </mxCell>
                <mxCell id="tF_pmX42v4WF78qZTHzq-30" value="20%&amp;nbsp; &amp;nbsp;X" style="rounded=0;whiteSpace=wrap;html=1;strokeWidth=3;fontColor=#ffffff;fillColor=#1ba1e2;strokeColor=#006EAF;" vertex="1" parent="tF_pmX42v4WF78qZTHzq-24">
                    <mxGeometry x="185" y="307.3139024390244" width="65" height="32.926829268292686" as="geometry"/>
                </mxCell>
                <mxCell id="tF_pmX42v4WF78qZTHzq-31" value="20%&amp;nbsp; &amp;nbsp;X" style="rounded=0;whiteSpace=wrap;html=1;strokeWidth=3;fontColor=#ffffff;fillColor=#1ba1e2;strokeColor=#006EAF;" vertex="1" parent="tF_pmX42v4WF78qZTHzq-24">
                    <mxGeometry x="265" y="307.3139024390244" width="72.5" height="32.926829268292686" as="geometry"/>
                </mxCell>
                <mxCell id="tF_pmX42v4WF78qZTHzq-32" value="" style="verticalLabelPosition=bottom;verticalAlign=top;html=1;shape=mxgraph.basic.donut;dx=10;strokeColor=none;fillColor=#10739E;fontSize=10;align=center;fillOpacity=20;strokeWidth=3;fontColor=#000000;" vertex="1" parent="tF_pmX42v4WF78qZTHzq-24">
                    <mxGeometry x="25" y="28.04" width="130" height="121.96" as="geometry"/>
                </mxCell>
                <mxCell id="tF_pmX42v4WF78qZTHzq-33" value="&lt;font color=&quot;#2c2b2b&quot;&gt;50%&lt;/font&gt;" style="verticalLabelPosition=middle;verticalAlign=middle;html=1;shape=mxgraph.basic.partConcEllipse;startAngle=0;endAngle=0.5066973048516978;arcWidth=0.2;strokeColor=#82b366;fillColor=#d5e8d4;fontSize=22;align=center;fontStyle=1;strokeWidth=3;" vertex="1" parent="tF_pmX42v4WF78qZTHzq-32">
                    <mxGeometry width="130" height="121.95999999999997" as="geometry"/>
                </mxCell>
                <mxCell id="tF_pmX42v4WF78qZTHzq-34" value="&lt;font style=&quot;font-size: 10px;&quot;&gt;Unadjusted Aggregate Rating: &lt;font color=&quot;#ffff33&quot; style=&quot;font-size: 10px;&quot;&gt;48%&lt;/font&gt;&lt;/font&gt;" style="strokeWidth=1;shadow=0;dashed=0;align=center;html=1;shape=mxgraph.mockup.text.textBox;fontColor=#ffffff;align=left;fontSize=10;spacingLeft=4;spacingTop=-3;strokeColor=#3A5431;mainText=;fillColor=#6d8764;" vertex="1" parent="tF_pmX42v4WF78qZTHzq-24">
                    <mxGeometry x="185" y="43.899867347922495" width="165" height="31.468070953436815" as="geometry"/>
                </mxCell>
                <mxCell id="tF_pmX42v4WF78qZTHzq-35" value="How far from next rating:&amp;nbsp; &lt;font color=&quot;#e6df0a&quot; style=&quot;font-size: 10px;&quot;&gt;10%&lt;/font&gt;" style="strokeWidth=1;shadow=0;dashed=0;align=center;html=1;shape=mxgraph.mockup.text.textBox;fontColor=#ffffff;align=left;fontSize=10;spacingLeft=4;spacingTop=-3;strokeColor=#3A5431;mainText=;fillColor=#6d8764;" vertex="1" parent="tF_pmX42v4WF78qZTHzq-24">
                    <mxGeometry x="185" y="116.01170731707319" width="162.5" height="31.467073170731712" as="geometry"/>
                </mxCell>
                <mxCell id="tF_pmX42v4WF78qZTHzq-36" value="" style="html=1;verticalLabelPosition=bottom;labelBackgroundColor=#ffffff;verticalAlign=top;shadow=0;dashed=0;strokeWidth=2;shape=mxgraph.ios7.misc.info;strokeColor=#0080f0;sketch=0;fontSize=13;fontColor=#e6df0a;" vertex="1" parent="tF_pmX42v4WF78qZTHzq-24">
                    <mxGeometry x="355" y="125.45121951219514" width="20.1" height="22.028048780487808" as="geometry"/>
                </mxCell>
                <mxCell id="tF_pmX42v4WF78qZTHzq-37" value="" style="html=1;verticalLabelPosition=bottom;labelBackgroundColor=#ffffff;verticalAlign=top;shadow=0;dashed=0;strokeWidth=2;shape=mxgraph.ios7.misc.info;strokeColor=#0080f0;sketch=0;fontSize=13;fontColor=#e6df0a;" vertex="1" parent="tF_pmX42v4WF78qZTHzq-24">
                    <mxGeometry x="355" y="48.62195121951221" width="20.1" height="22.028048780487808" as="geometry"/>
                </mxCell>
                <mxCell id="tF_pmX42v4WF78qZTHzq-74" value="&lt;font color=&quot;#ff8000&quot;&gt;description&lt;/font&gt;" style="swimlane;fontStyle=0;childLayout=stackLayout;horizontal=1;startSize=30;horizontalStack=0;resizeParent=1;resizeParentMax=0;resizeLast=0;collapsible=1;marginBottom=0;whiteSpace=wrap;html=1;" vertex="1" parent="tF_pmX42v4WF78qZTHzq-24">
                    <mxGeometry x="25" y="350" width="100" height="62.926829268292686" as="geometry"/>
                </mxCell>
                <mxCell id="tF_pmX42v4WF78qZTHzq-75" value="&lt;font color=&quot;#00ff00&quot; style=&quot;background-color: rgb(51, 51, 255);&quot;&gt;20%&lt;/font&gt;" style="text;strokeColor=none;fillColor=none;align=center;verticalAlign=middle;spacingLeft=4;spacingRight=4;overflow=hidden;points=[[0,0.5],[1,0.5]];portConstraint=eastwest;rotatable=0;whiteSpace=wrap;html=1;" vertex="1" parent="tF_pmX42v4WF78qZTHzq-74">
                    <mxGeometry y="30" width="100" height="32.926829268292686" as="geometry"/>
                </mxCell>
                <mxCell id="tF_pmX42v4WF78qZTHzq-80" value="Calculate" style="html=1;shadow=0;dashed=0;shape=mxgraph.bootstrap.rrect;rSize=5;strokeColor=none;strokeWidth=1;fillColor=#33A64C;fontColor=#FFFFFF;whiteSpace=wrap;align=center;verticalAlign=middle;spacingLeft=0;fontStyle=0;fontSize=16;spacing=5;labelBackgroundColor=none;" vertex="1" parent="tF_pmX42v4WF78qZTHzq-24">
                    <mxGeometry x="125" y="400" width="150" height="40" as="geometry"/>
                </mxCell>
                <mxCell id="tF_pmX42v4WF78qZTHzq-38" value="--" style="html=1;shadow=0;dashed=0;shape=mxgraph.bootstrap.rrect;rSize=5;strokeColor=#B09500;strokeWidth=1;fillColor=#e3c800;whiteSpace=wrap;align=right;verticalAlign=middle;fontStyle=0;fontSize=14;spacingRight=20;fontColor=#000000;" vertex="1" parent="1">
                    <mxGeometry x="621.25" y="747.5" width="40" height="25" as="geometry"/>
                </mxCell>
                <mxCell id="tF_pmX42v4WF78qZTHzq-39" value="" style="shape=triangle;direction=south;fillColor=#ffffff;strokeColor=none;perimeter=none;strokeWidth=3;fontColor=#e6df0a;" vertex="1" parent="tF_pmX42v4WF78qZTHzq-38">
                    <mxGeometry x="1" y="0.5" width="10" height="5" relative="1" as="geometry">
                        <mxPoint x="-17" y="-2.5" as="offset"/>
                    </mxGeometry>
                </mxCell>
                <mxCell id="tF_pmX42v4WF78qZTHzq-40" value="0" style="html=1;shadow=0;dashed=0;shape=mxgraph.bootstrap.rrect;rSize=5;strokeColor=#B09500;strokeWidth=1;fillColor=#e3c800;whiteSpace=wrap;align=right;verticalAlign=middle;fontStyle=0;fontSize=14;spacingRight=20;fontColor=#000000;" vertex="1" parent="1">
                    <mxGeometry x="621.25" y="792.5" width="40" height="25" as="geometry"/>
                </mxCell>
                <mxCell id="tF_pmX42v4WF78qZTHzq-41" value="" style="shape=triangle;direction=south;fillColor=#ffffff;strokeColor=none;perimeter=none;strokeWidth=3;fontColor=#e6df0a;" vertex="1" parent="tF_pmX42v4WF78qZTHzq-40">
                    <mxGeometry x="1" y="0.5" width="10" height="5" relative="1" as="geometry">
                        <mxPoint x="-17" y="-2.5" as="offset"/>
                    </mxGeometry>
                </mxCell>
                <mxCell id="tF_pmX42v4WF78qZTHzq-44" value="" style="html=1;verticalLabelPosition=bottom;labelBackgroundColor=#ffffff;verticalAlign=top;shadow=0;dashed=0;strokeWidth=1;shape=mxgraph.ios7ui.iconGrid;fillColor=#c0c0c0;gridSize=3,3;" vertex="1" parent="1">
                    <mxGeometry x="100" y="620" width="90" height="85" as="geometry"/>
                </mxCell>
                <mxCell id="tF_pmX42v4WF78qZTHzq-45" value="Description" style="html=1;shadow=0;dashed=0;shape=mxgraph.bootstrap.rrect;rSize=5;strokeColor=#CED4DA;html=1;whiteSpace=wrap;fillColor=#FFFFFF;fontColor=#7D868C;align=left;spacingLeft=80;spacing=15;fontSize=14;" vertex="1" parent="1">
                    <mxGeometry x="270" y="690" width="410" height="40" as="geometry"/>
                </mxCell>
                <mxCell id="tF_pmX42v4WF78qZTHzq-46" value="" style="shape=triangle;direction=south;fillColor=#343A40;strokeColor=none;perimeter=none;" vertex="1" parent="tF_pmX42v4WF78qZTHzq-45">
                    <mxGeometry x="1" y="0.5" width="7" height="3" relative="1" as="geometry">
                        <mxPoint x="-17" y="1" as="offset"/>
                    </mxGeometry>
                </mxCell>
                <mxCell id="tF_pmX42v4WF78qZTHzq-48" value="" style="html=1;shadow=0;dashed=0;shape=mxgraph.bootstrap.leftButton;strokeColor=#6C757D;gradientColor=inherit;fontColor=inherit;fillColor=#ffffff;rSize=5;perimeter=none;whiteSpace=wrap;resizeHeight=1;fontSize=14;align=left;spacing=15;" vertex="1" parent="tF_pmX42v4WF78qZTHzq-45">
                    <mxGeometry width="50" height="40" relative="1" as="geometry"/>
                </mxCell>
                <mxCell id="tF_pmX42v4WF78qZTHzq-51" value="" style="html=1;verticalLabelPosition=bottom;labelBackgroundColor=#ffffff;verticalAlign=top;shadow=0;dashed=0;strokeWidth=2;shape=mxgraph.ios7.misc.add;fillColor=#00dd00;strokeColor=#ffffff;sketch=0;" vertex="1" parent="tF_pmX42v4WF78qZTHzq-45">
                    <mxGeometry x="9.999999999999996" y="4" width="29.999999999999996" height="32" as="geometry"/>
                </mxCell>
                <mxCell id="tF_pmX42v4WF78qZTHzq-49" value="quick calculation" style="html=1;shadow=0;dashed=0;shape=mxgraph.bootstrap.rrect;rSize=5;strokeColor=none;strokeWidth=1;fillColor=#6C767D;fontColor=#ffffff;whiteSpace=wrap;align=right;verticalAlign=middle;fontStyle=0;fontSize=14;spacingRight=20;" vertex="1" parent="1">
                    <mxGeometry x="275" y="642.5" width="140" height="40" as="geometry"/>
                </mxCell>
                <mxCell id="tF_pmX42v4WF78qZTHzq-50" value="" style="shape=triangle;direction=south;fillColor=#ffffff;strokeColor=none;perimeter=none;" vertex="1" parent="tF_pmX42v4WF78qZTHzq-49">
                    <mxGeometry x="1" y="0.5" width="10" height="5" relative="1" as="geometry">
                        <mxPoint x="-17" y="-2.5" as="offset"/>
                    </mxGeometry>
                </mxCell>
                <mxCell id="tF_pmX42v4WF78qZTHzq-53" value="" style="shape=flexArrow;endArrow=classic;startArrow=classic;html=1;fillColor=#e3c800;strokeColor=#B09500;" edge="1" parent="1" target="tF_pmX42v4WF78qZTHzq-49">
                    <mxGeometry width="100" height="100" relative="1" as="geometry">
                        <mxPoint x="190" y="670" as="sourcePoint"/>
                        <mxPoint x="290" y="570" as="targetPoint"/>
                    </mxGeometry>
                </mxCell>
                <mxCell id="tF_pmX42v4WF78qZTHzq-55" value="" style="shape=flexArrow;endArrow=classic;startArrow=classic;html=1;fillColor=#e3c800;strokeColor=#B09500;" edge="1" parent="1">
                    <mxGeometry width="100" height="100" relative="1" as="geometry">
                        <mxPoint x="670" y="718.23" as="sourcePoint"/>
                        <mxPoint x="720" y="731.615" as="targetPoint"/>
                    </mxGeometry>
                </mxCell>
                <mxCell id="tF_pmX42v4WF78qZTHzq-67" value="&lt;ol&gt;&lt;li&gt;&lt;span style=&quot;background-color: initial;&quot;&gt;10%&lt;/span&gt;&lt;/li&gt;&lt;li&gt;&lt;span style=&quot;background-color: initial;&quot;&gt;&amp;nbsp;20%&lt;/span&gt;&lt;br&gt;&lt;/li&gt;&lt;li&gt;&amp;nbsp;30%&lt;/li&gt;&lt;/ol&gt;" style="text;strokeColor=#C73500;fillColor=#fa6800;html=1;whiteSpace=wrap;verticalAlign=middle;overflow=hidden;fontColor=#000000;" vertex="1" parent="1">
                    <mxGeometry x="720" y="720" width="100" height="80" as="geometry"/>
                </mxCell>
            </root>
        </mxGraphModel>
    </diagram>
</mxfile>